HIERARCHY
ROOT Hips
{
	OFFSET	0.00	0.00	0.00
	CHANNELS 6 Xposition Yposition Zposition Zrotation Xrotation Yrotation
	JOINT Spine
	{
		OFFSET	 0.00	0.01	 0.00
		CHANNELS 3 Zrotation Xrotation Yrotation
		JOINT Spine1
		{
			OFFSET	 0.00	 2.45913012437421	 0.00
			CHANNELS 3 Zrotation Xrotation Yrotation
            JOINT Neck
            {
                OFFSET	 0.00	 2.48462964506057	 0.00
                CHANNELS 3 Zrotation Xrotation Yrotation
                JOINT Head
                {
                    OFFSET	 0.00	 0.927524780924562	 0.00
                    CHANNELS 3 Zrotation Xrotation Yrotation
                    End Site 
                    {
                        OFFSET	 0.00	 1.14999962169752	 0.00
                    }
                }
            }
			JOINT LeftShoulder
			{
				OFFSET	 0.00	 2.48462964506057	 0.00
				CHANNELS 3 Zrotation Xrotation Yrotation
				JOINT LeftUpArm
				{
					OFFSET	 0.00	 1.24881979654096	 0.00
					CHANNELS 3 Zrotation Xrotation Yrotation
					JOINT LeftForeArm
					{
						OFFSET	 0.00	2.59758046908119	 0.00
						CHANNELS 3 Zrotation Xrotation Yrotation
						JOINT LeftHand
						{
							OFFSET	 0.00	2.45542024364365	 0.00
							CHANNELS 3 Zrotation Xrotation Yrotation
							JOINT LeftHandThumb 
							{
								OFFSET	 0.00	0.00	 0.00
								CHANNELS 3 Zrotation Xrotation Yrotation
								End Site
								{
									OFFSET	 0.00	0.00	1.00000003353624
								}
							}
							JOINT L_Wrist_End 
							{
								OFFSET	 0.00	0.99999967115358	 0.00
								CHANNELS 3 Zrotation Xrotation Yrotation
								End Site 
								{
									OFFSET	 0.00	 0.00	 0.00
								}
							}
						}
					}
				}
			}
			JOINT RightShoulder
			{
				OFFSET	 0.00	 2.48462964506057	 0.00
				CHANNELS 3 Zrotation Xrotation Yrotation
				JOINT RightUpArm
				{
					OFFSET	 0.00	 1.24881979654096	 0.00
					CHANNELS 3 Zrotation Xrotation Yrotation
					JOINT RightForeArm
					{
						OFFSET	 0.00	2.59758046908119	 0.00
						CHANNELS 3 Zrotation Xrotation Yrotation
						JOINT RightHand
						{
							OFFSET	 0.00	2.45542024364365	 0.00
							CHANNELS 3 Zrotation Xrotation Yrotation
							JOINT RightHandThumb 
							{
								OFFSET	 0.00	0.00	 0.00
								CHANNELS 3 Zrotation Xrotation Yrotation
								End Site
								{
									OFFSET	 0.00	0.00	1.00000003353624
								}
							}
							JOINT R_Wrist_End 
							{
								OFFSET	 0.00	0.99999967115358	 0.00
								CHANNELS 3 Zrotation Xrotation Yrotation
								End Site 
								{
									OFFSET	 0.00	 0.00	 0.00
								}
							}
						}
					}
				}
			}
		}
	}
	JOINT LeftUpLeg
	{
		OFFSET	 1.2719394002717	 0.00	 0.00
		CHANNELS 3 Zrotation Xrotation Yrotation
		JOINT LeftLowLeg
		{
			OFFSET	 0.00	-4.3429100912261	 0.00
			CHANNELS 3 Zrotation Xrotation Yrotation
			JOINT LeftFoot
			{
				OFFSET	 0.00	-4.48767017425826	 0.00
				CHANNELS 3 Zrotation Xrotation Yrotation
				JOINT LeftToeBase
                {
                    OFFSET	 0.00	0.00	 1.51507020887566
                    CHANNELS 3 Zrotation Xrotation Yrotation
                    End Site 
                    {
                        OFFSET	 0.00	0.00	 0.75000010571191
                    }
                }
			}
		}
	}
	JOINT RightUpLeg
	{
		OFFSET	 -1.2719393604653	 0.00	 0.00
		CHANNELS 3 Zrotation Xrotation Yrotation
		JOINT RightLowLeg
		{
			OFFSET	 0.00	-4.3429100912261	 0.00
			CHANNELS 3 Zrotation Xrotation Yrotation
			JOINT RightFoot
			{
				OFFSET	 0.00	-4.48767017425826	 0.00
				CHANNELS 3 Zrotation Xrotation Yrotation
				JOINT RightToeBase
                {
                    OFFSET	 0.00	0.00	 1.51507020887566
                    CHANNELS 3 Zrotation Xrotation Yrotation
                    End Site 
                    {
                        OFFSET	 0.00	0.00	 0.749999965609858
                    }
                }   
			}
		}
	}
}
MOTION 
Frames:	6 
Frame Time: 0.02 
  -4.853080139160157 -0.7377490234375 9.414429931640624 -140.345 77.1999 -193.922 5.9649 -26.7677 0.052043 -4.63995 11.2848 -2.00041 24.6642 31.3131 -10.9561 -54.4783 -68.6335 318.854 -114.7969 4.17608 14.5927 -30.0245 28.7992 -376.692 0.0 96.7663 0.0 7.80752 -37.7006 398.221 0.0 0.0 0.0 0.0 0.0 0.0 114.6388 -3.59829 -4.05343 44.6828 22.8058 -6.75094 0.0 102.186 0.0 -8.84046 -21.0122 -18.6938 0.0 0.0 0.0 0.0 0.0 0.0 -1.05194 -8.77115 -23.7268 0.0 6.34371 0.0 -0.211683 -2.3465004 19.972 0.0 -11.06478 0.0 8.45025 -5.32562 35.602 0.0 3.97589 0.0 4.2285 3.4174004 -23.0725 0.0 -16.82582 0.0 
  -4.851229858398438 -0.7361840057373047 9.413300170898438 -140.685 76.9016 -193.553 6.52032 -26.6425 0.361882 -5.69785 11.1843 -2.03062 26.1654 29.4937 -12.7364 -53.763 -69.2074 319.12 -114.4475 3.27537 14.346 -32.4517 26.9423 -377.018 0.0 99.9335 0.0 8.34927 -38.2867 395.952 0.0 0.0 0.0 0.0 0.0 0.0 115.1072 -3.46217 -4.1802 45.0318 22.4086 -3.94109 0.0 104.259 0.0 -15.1198 -20.4208 -15.9902 0.0 0.0 0.0 0.0 0.0 0.0 -1.05872 -9.04535 -23.7555 0.0 6.25685 0.0 -0.211773 -2.3360996 19.9604 0.0 -11.04054 0.0 8.41393 -5.59582 35.6531 0.0 3.89436 0.0 4.21262 3.4019003 -23.1358 0.0 -16.8115 0.0 
  -4.850239868164063 -0.7338059997558594 9.412979736328126 -140.906 76.6141 -193.279 6.51782 -26.484 0.382898 -5.67901 11.0245 -2.04039 26.7529 28.1635 -13.7602 -54.5775 -69.7087 317.631 -114.6476 2.48458 14.2222 -34.789 25.0536 -377.591 0.0 102.599 0.0 9.95691 -38.4534 392.896 0.0 0.0 0.0 0.0 0.0 0.0 115.1828 -3.29689 -4.31126 45.289 21.855 -0.912941 0.0 106.243 0.0 -21.3254 -20.3972 -13.3387 0.0 0.0 0.0 0.0 0.0 0.0 -1.05078 -9.32732 -23.7906 0.0 6.19611 0.0 -0.20648 -2.3101006 19.9355 0.0 -11.03039 0.0 8.40393 -5.86927 35.6301 0.0 3.83853 0.0 4.21039 3.4059 -23.1409 0.0 -16.78878 0.0 
  -4.849049987792969 -0.7300769805908203 9.413189697265626 -140.992 76.363 -193.084 6.50835 -26.2845 0.407732 -5.57243 10.9472 -2.03986 26.4485 27.6245 -13.4198 -56.668 -70.5772 314.147 -114.923004 1.80131 14.3019 -36.7492 23.2848 -378.553 0.0 104.811 0.0 11.9445 -38.122 389.303 0.0 0.0 0.0 0.0 0.0 0.0 115.2456 -3.24476 -4.41225 45.4624 21.305 2.13057 0.0 108.199 0.0 -26.3454 -21.9424 -10.5391 0.0 0.0 0.0 0.0 0.0 0.0 -1.05035 -9.6013 -23.9264 0.0 6.18037 0.0 -0.181984 -2.2733002 19.9741 0.0 -11.0289 0.0 8.40705 -6.11812 35.5076 0.0 3.80235 0.0 4.18286 3.4397001 -23.1158 0.0 -16.79549 0.0 
  -4.846400146484375 -0.7269629669189454 9.412769775390625 -140.968 76.1583 -192.91 6.61249 -26.1762 0.511593 -5.72045 11.0634 -1.99558 26.7757 26.5395 -14.0151 -58.2021 -71.1856 312.0 -115.2251 1.36939 14.5437 -38.03 21.6213 -379.849 0.0 106.675 0.0 13.4448 -37.8619 385.639 0.0 0.0 0.0 0.0 0.0 0.0 115.273 -3.2523 -4.34659 45.8613 20.6061 5.41742 0.0 109.604 0.0 -29.3657 -23.0132 -4.51456 0.0 0.0 0.0 0.0 0.0 0.0 -1.064 -9.83982 -24.133 0.0 6.19057 0.0 -0.160708 -2.2577 19.9935 0.0 -11.0129795 0.0 8.4016 -6.2953 35.2489 0.0 3.73408 0.0 4.12773 3.4643002 -23.0758 0.0 -16.80856 0.0 
  -4.843869934082031 -0.7231060028076172 9.411929931640625 -140.937 76.0047 -192.683 6.74234 -26.1021 0.659523 -6.01652 11.3407 -1.8983 27.2543 25.2622 -14.8114 -59.0241 -71.6924 310.793 -115.558304 1.10001 14.6845 -38.6509 20.0934 -380.781 0.0 108.204 0.0 16.1509 -38.1673 382.434 0.0 0.0 0.0 0.0 0.0 0.0 115.343796 -3.34411 -4.23102 46.221 19.8457 8.64518 0.0 110.516 0.0 -31.8835 -22.3302 0.432452 0.0 0.0 0.0 0.0 0.0 0.0 -1.10401 -10.0457 -24.4169 0.0 6.21433 0.0 -0.130458 -2.2313004 20.0331 0.0 -11.00119 0.0 8.38234 -6.43177 34.9253 0.0 3.68103 0.0 4.06096 3.4526997 -23.0438 0.0 -16.79402 0.0 
